<mxfile host="app.diagrams.net" modified="2021-01-14T16:54:28.476Z" agent="5.0 (Windows NT 10.0; Win64; x64) AppleWebKit/537.36 (KHTML, like Gecko) Chrome/87.0.4280.66 Safari/537.36" etag="5IqrrrHhjgxqVpHc7H61" version="14.1.4" type="github">
  <diagram name="Page-1" id="c7558073-3199-34d8-9f00-42111426c3f3">
    <mxGraphModel dx="1422" dy="762" grid="1" gridSize="10" guides="1" tooltips="1" connect="1" arrows="1" fold="1" page="1" pageScale="1" pageWidth="826" pageHeight="1169" background="#ffffff" math="0" shadow="0">
      <root>
        <mxCell id="0" />
        <mxCell id="1" parent="0" />
        <mxCell id="hiK0qJrg54170Motd78u-1" value="probable-chainsaw " style="whiteSpace=wrap;html=1;" vertex="1" parent="1">
          <mxGeometry x="371" y="481" width="120" height="30" as="geometry" />
        </mxCell>
        <mxCell id="hiK0qJrg54170Motd78u-2" value=" applicant fills in feilds" style="whiteSpace=wrap;html=1;" vertex="1" parent="1">
          <mxGeometry x="601" y="601" width="130" height="30" as="geometry" />
        </mxCell>
        <mxCell id="hiK0qJrg54170Motd78u-3" value="" edge="1" source="hiK0qJrg54170Motd78u-1" target="hiK0qJrg54170Motd78u-2" parent="1">
          <mxGeometry x="90" y="220" as="geometry" />
        </mxCell>
        <mxCell id="hiK0qJrg54170Motd78u-4" value=" ats formatted resume" style="whiteSpace=wrap;html=1;" vertex="1" parent="1">
          <mxGeometry x="91" y="461" width="130" height="30" as="geometry" />
        </mxCell>
        <mxCell id="hiK0qJrg54170Motd78u-5" value="" edge="1" source="hiK0qJrg54170Motd78u-1" target="hiK0qJrg54170Motd78u-4" parent="1">
          <mxGeometry x="90" y="220" as="geometry" />
        </mxCell>
        <mxCell id="hiK0qJrg54170Motd78u-6" value=" ats: applicant tracking system" style="whiteSpace=wrap;html=1;" vertex="1" parent="1">
          <mxGeometry x="491" y="421" width="170" height="30" as="geometry" />
        </mxCell>
        <mxCell id="hiK0qJrg54170Motd78u-7" value="" edge="1" source="hiK0qJrg54170Motd78u-1" target="hiK0qJrg54170Motd78u-6" parent="1">
          <mxGeometry x="90" y="220" as="geometry" />
        </mxCell>
        <mxCell id="hiK0qJrg54170Motd78u-8" value=" ats friendly" style="whiteSpace=wrap;html=1;" vertex="1" parent="1">
          <mxGeometry x="231" y="461" width="80" height="30" as="geometry" />
        </mxCell>
        <mxCell id="hiK0qJrg54170Motd78u-9" value="" edge="1" source="hiK0qJrg54170Motd78u-1" target="hiK0qJrg54170Motd78u-8" parent="1">
          <mxGeometry x="90" y="220" as="geometry" />
        </mxCell>
        <mxCell id="hiK0qJrg54170Motd78u-10" value=" tailoring capability by job" style="whiteSpace=wrap;html=1;" vertex="1" parent="1">
          <mxGeometry x="411" y="731" width="150" height="30" as="geometry" />
        </mxCell>
        <mxCell id="hiK0qJrg54170Motd78u-11" value="" edge="1" source="hiK0qJrg54170Motd78u-1" target="hiK0qJrg54170Motd78u-10" parent="1">
          <mxGeometry x="90" y="220" as="geometry" />
        </mxCell>
        <mxCell id="hiK0qJrg54170Motd78u-12" value=" resume builder" style="whiteSpace=wrap;html=1;" vertex="1" parent="1">
          <mxGeometry x="641" y="491" width="90" height="30" as="geometry" />
        </mxCell>
        <mxCell id="hiK0qJrg54170Motd78u-13" value="" edge="1" source="hiK0qJrg54170Motd78u-1" target="hiK0qJrg54170Motd78u-12" parent="1">
          <mxGeometry x="90" y="220" as="geometry" />
        </mxCell>
        <mxCell id="hiK0qJrg54170Motd78u-14" value=" job hunt tracker" style="whiteSpace=wrap;html=1;" vertex="1" parent="1">
          <mxGeometry x="541" y="291" width="100" height="30" as="geometry" />
        </mxCell>
        <mxCell id="hiK0qJrg54170Motd78u-15" value="" edge="1" source="hiK0qJrg54170Motd78u-1" target="hiK0qJrg54170Motd78u-14" parent="1">
          <mxGeometry x="90" y="220" as="geometry" />
        </mxCell>
        <mxCell id="hiK0qJrg54170Motd78u-16" value=" recruiter tracker" style="whiteSpace=wrap;html=1;" vertex="1" parent="1">
          <mxGeometry x="281" y="351" width="100" height="30" as="geometry" />
        </mxCell>
        <mxCell id="hiK0qJrg54170Motd78u-17" value="" edge="1" source="hiK0qJrg54170Motd78u-1" target="hiK0qJrg54170Motd78u-16" parent="1">
          <mxGeometry x="90" y="220" as="geometry" />
        </mxCell>
        <mxCell id="hiK0qJrg54170Motd78u-18" value=" nlp capable" style="whiteSpace=wrap;html=1;" vertex="1" parent="1">
          <mxGeometry x="231" y="251" width="80" height="30" as="geometry" />
        </mxCell>
        <mxCell id="hiK0qJrg54170Motd78u-19" value="" edge="1" source="hiK0qJrg54170Motd78u-1" target="hiK0qJrg54170Motd78u-18" parent="1">
          <mxGeometry x="90" y="220" as="geometry" />
        </mxCell>
        <mxCell id="hiK0qJrg54170Motd78u-20" value=" ocr capable" style="whiteSpace=wrap;html=1;" vertex="1" parent="1">
          <mxGeometry x="161" y="351" width="80" height="30" as="geometry" />
        </mxCell>
        <mxCell id="hiK0qJrg54170Motd78u-21" value="" edge="1" source="hiK0qJrg54170Motd78u-1" target="hiK0qJrg54170Motd78u-20" parent="1">
          <mxGeometry x="90" y="220" as="geometry" />
        </mxCell>
        <mxCell id="hiK0qJrg54170Motd78u-22" value=" questionaire based refinement" style="whiteSpace=wrap;html=1;" vertex="1" parent="1">
          <mxGeometry x="411" y="221" width="180" height="30" as="geometry" />
        </mxCell>
        <mxCell id="hiK0qJrg54170Motd78u-23" value="" edge="1" source="hiK0qJrg54170Motd78u-1" target="hiK0qJrg54170Motd78u-22" parent="1">
          <mxGeometry x="90" y="220" as="geometry" />
        </mxCell>
        <mxCell id="hiK0qJrg54170Motd78u-24" value=" school transcripts" style="whiteSpace=wrap;html=1;" vertex="1" parent="1">
          <mxGeometry x="621" y="361" width="110" height="30" as="geometry" />
        </mxCell>
        <mxCell id="hiK0qJrg54170Motd78u-25" value="" edge="1" source="hiK0qJrg54170Motd78u-1" target="hiK0qJrg54170Motd78u-24" parent="1">
          <mxGeometry x="90" y="220" as="geometry" />
        </mxCell>
        <mxCell id="hiK0qJrg54170Motd78u-26" value=" reverse crm" style="whiteSpace=wrap;html=1;" vertex="1" parent="1">
          <mxGeometry x="391" y="621" width="80" height="30" as="geometry" />
        </mxCell>
        <mxCell id="hiK0qJrg54170Motd78u-27" value="" edge="1" source="hiK0qJrg54170Motd78u-1" target="hiK0qJrg54170Motd78u-26" parent="1">
          <mxGeometry x="90" y="220" as="geometry" />
        </mxCell>
        <mxCell id="hiK0qJrg54170Motd78u-28" value=" from job ad extrapolate company information" style="whiteSpace=wrap;html=1;" vertex="1" parent="1">
          <mxGeometry x="251" y="731" width="250" height="30" as="geometry" />
        </mxCell>
        <mxCell id="hiK0qJrg54170Motd78u-29" value="" edge="1" source="hiK0qJrg54170Motd78u-1" target="hiK0qJrg54170Motd78u-28" parent="1">
          <mxGeometry x="90" y="220" as="geometry" />
        </mxCell>
        <mxCell id="hiK0qJrg54170Motd78u-30" value=" do research on company" style="whiteSpace=wrap;html=1;" vertex="1" parent="1">
          <mxGeometry x="481" y="551" width="150" height="30" as="geometry" />
        </mxCell>
        <mxCell id="hiK0qJrg54170Motd78u-31" value="" edge="1" source="hiK0qJrg54170Motd78u-1" target="hiK0qJrg54170Motd78u-30" parent="1">
          <mxGeometry x="90" y="220" as="geometry" />
        </mxCell>
        <mxCell id="hiK0qJrg54170Motd78u-32" value=" internet scrape" style="whiteSpace=wrap;html=1;" vertex="1" parent="1">
          <mxGeometry x="421" y="331" width="90" height="30" as="geometry" />
        </mxCell>
        <mxCell id="hiK0qJrg54170Motd78u-33" value="" edge="1" source="hiK0qJrg54170Motd78u-1" target="hiK0qJrg54170Motd78u-32" parent="1">
          <mxGeometry x="90" y="220" as="geometry" />
        </mxCell>
        <mxCell id="hiK0qJrg54170Motd78u-34" value=" research on recruiter" style="whiteSpace=wrap;html=1;" vertex="1" parent="1">
          <mxGeometry x="241" y="581" width="130" height="30" as="geometry" />
        </mxCell>
        <mxCell id="hiK0qJrg54170Motd78u-35" value="" edge="1" source="hiK0qJrg54170Motd78u-1" target="hiK0qJrg54170Motd78u-34" parent="1">
          <mxGeometry x="90" y="220" as="geometry" />
        </mxCell>
        <mxCell id="hiK0qJrg54170Motd78u-36" value=" talking points" style="whiteSpace=wrap;html=1;" vertex="1" parent="1">
          <mxGeometry x="141" y="581" width="90" height="30" as="geometry" />
        </mxCell>
        <mxCell id="hiK0qJrg54170Motd78u-37" value="" edge="1" source="hiK0qJrg54170Motd78u-1" target="hiK0qJrg54170Motd78u-36" parent="1">
          <mxGeometry x="90" y="220" as="geometry" />
        </mxCell>
        <mxCell id="hiK0qJrg54170Motd78u-38" value=" inteview questions" style="whiteSpace=wrap;html=1;" vertex="1" parent="1">
          <mxGeometry x="331" y="221" width="110" height="30" as="geometry" />
        </mxCell>
        <mxCell id="hiK0qJrg54170Motd78u-39" value="" edge="1" source="hiK0qJrg54170Motd78u-1" target="hiK0qJrg54170Motd78u-38" parent="1">
          <mxGeometry x="90" y="220" as="geometry" />
        </mxCell>
        <mxCell id="hiK0qJrg54170Motd78u-40" value=" video analyzer for interview training" style="whiteSpace=wrap;html=1;" vertex="1" parent="1">
          <mxGeometry x="481" y="671" width="200" height="30" as="geometry" />
        </mxCell>
        <mxCell id="hiK0qJrg54170Motd78u-41" value="" edge="1" source="hiK0qJrg54170Motd78u-1" target="hiK0qJrg54170Motd78u-40" parent="1">
          <mxGeometry x="90" y="220" as="geometry" />
        </mxCell>
        <mxCell id="hiK0qJrg54170Motd78u-42" value=" interview mockup" style="whiteSpace=wrap;html=1;" vertex="1" parent="1">
          <mxGeometry x="211" y="691" width="110" height="30" as="geometry" />
        </mxCell>
        <mxCell id="hiK0qJrg54170Motd78u-43" value="" edge="1" source="hiK0qJrg54170Motd78u-1" target="hiK0qJrg54170Motd78u-42" parent="1">
          <mxGeometry x="90" y="220" as="geometry" />
        </mxCell>
      </root>
    </mxGraphModel>
  </diagram>
</mxfile>
